# xmcd
#
# Track frame offsets:
#	150
#	13489
#	25349
#	42434
#	54963
#	69105
#	82626
#	95704
#	106544
#	117348
#	129664
#	153865
#
# Disc length: 2235 seconds
#
# Revision: 1
# Processed by: cddbd v1.5.2PL0 Copyright (c) Steve Scherf et al.
# Submitted via: audiograbber 1.83.01
#
DISCID=8c08b90c
DTITLE=Johnny Cash - Walk The Line: The Very Best Of - CD1 The Classics
DYEAR=2006
DGENRE=Country
TTITLE0=I Walk the Line
TTITLE1=Ring of Fire
TTITLE2=A Boy Named Sue
TTITLE3=Jackson
TTITLE4=Orange Blossom Special
TTITLE5=Tennessee Flat Top Box
TTITLE6=Man in Black
TTITLE7=In the Jailhouse Now
TTITLE8=Daddy Sang Bass
TTITLE9=Folsom Prison Blues
TTITLE10=Highway Patrolman
TTITLE11=It Ain't Me Babe
EXTD=
EXTT0=
EXTT1=
EXTT2=
EXTT3=
EXTT4=
EXTT5=
EXTT6=
EXTT7=
EXTT8=
EXTT9=
EXTT10=
EXTT11=
PLAYORDER=
